<svg data-v-423bf9ae="" xmlns="http://www.w3.org/2000/svg" viewBox="0 0 131.23543062397198 60" class="font"><!----><!----><!----><g data-v-423bf9ae="" id="70e7249d-b9db-4a34-940b-8eb9629e6cbc" fill="#FB0200" transform="matrix(4.662004703459526,0,0,4.662004703459526,2.0046638311156855,-3.7762247149869737)"><path d="M5.39 10.85L5.39 10.85Q5.21 11.19 4.78 11.19Q4.35 11.19 4.22 11.07Q4.09 10.95 4.09 10.44Q4.09 9.93 4.63 8.06Q5.18 6.19 5.18 5.90Q5.18 5.61 5.07 5.61L5.07 5.61Q4.90 5.61 4.65 5.90Q4.40 6.19 4.23 6.47L4.23 6.47L4.06 6.76Q3.16 8.22 2.43 9.68Q1.69 11.14 1.35 11.82Q1.01 12.50 0.76 12.68Q0.50 12.87 0.04 12.87Q-0.43 12.87-0.43 12.66L-0.43 12.66L-0.43 12.61Q-0.43 12.47 0.29 11.31L0.29 11.31Q2.98 7.04 4.34 4.34L4.34 4.34Q4.66 3.70 4.66 3.14L4.66 3.14L4.66 2.97Q4.66 2.72 5.24 2.56Q5.82 2.41 6.20 2.41L6.20 2.41L6.66 2.41Q7.25 2.41 7.53 2.63L7.53 2.63Q7.66 2.72 7.66 2.86Q7.66 3.00 7.11 4.80Q6.55 6.59 6.55 6.96Q6.55 7.32 6.66 7.32L6.66 7.32Q7.01 7.32 7.90 6.46Q8.78 5.60 9.91 4.40L9.91 4.40Q10.84 3.39 11.68 2.66L11.68 2.66Q11.86 2.49 12.11 2.46L12.11 2.46Q12.66 2.38 13.28 2.38Q13.90 2.38 13.90 2.66L13.90 2.66Q13.90 2.72 13.89 2.74Q13.89 2.77 13.37 3.59Q12.85 4.41 12.11 5.62Q11.37 6.83 10.63 8.13Q9.88 9.42 9.37 10.59Q8.85 11.76 8.85 12.31L8.85 12.31Q8.72 12.54 8.46 12.54L8.46 12.54Q7.07 12.54 7.07 12.05L7.07 12.05Q7.07 10.92 9.88 6.61L9.88 6.61Q10.25 6.06 10.25 5.92Q10.25 5.78 10.04 5.78L10.04 5.78Q9.51 5.78 7.80 7.68Q6.09 9.58 5.39 10.85ZM10.63 13.06L10.63 13.06Q10.43 13.06 10.19 12.82Q9.95 12.57 9.95 12.22L9.95 12.22Q9.95 12.03 10.87 10.24Q11.79 8.46 11.82 7.83L11.82 7.83Q11.82 7.63 12.07 7.46L12.07 7.46Q12.52 7.20 13.40 7.20L13.40 7.20Q13.57 7.20 13.76 7.26Q13.94 7.32 13.94 7.43L13.94 7.43Q13.94 7.49 13.90 7.53L13.90 7.53Q13.37 8.20 12.35 9.95Q11.33 11.70 10.81 12.80L10.81 12.80Q10.74 13.06 10.63 13.06ZM13.69 6.41L13.69 6.41Q13.08 6.41 13.05 5.92L13.05 5.92L13.05 5.91Q13.05 5.49 13.46 5.22Q13.87 4.96 14.28 4.96L14.28 4.96Q14.90 4.96 14.92 5.45L14.92 5.45Q14.92 5.87 14.52 6.14Q14.11 6.41 13.69 6.41ZM19.99 3.40L19.99 3.40L20.68 3.37Q20.82 3.37 20.82 3.43Q20.82 3.49 20.79 3.57Q20.76 3.65 20.67 3.78Q20.58 3.91 20.45 4.00L20.45 4.00Q20.12 4.27 19.62 4.27Q19.12 4.27 18.89 4.30Q18.66 4.33 18.49 4.44Q18.33 4.55 18.27 4.61Q18.21 4.66 18.07 4.89Q17.93 5.11 17.88 5.19L17.88 5.19Q17.14 6.23 15.48 9.10Q13.82 11.97 13.41 13.54L13.41 13.54Q13.37 13.68 13.15 13.68Q12.94 13.68 12.56 13.31Q12.18 12.95 12.18 12.57Q12.18 12.19 13.32 10.32Q14.46 8.44 15.61 6.63Q16.76 4.82 16.76 4.61Q16.76 4.41 16.59 4.36Q16.42 4.31 16.00 4.31L16.00 4.31L15.54 4.31Q15.36 4.31 15.36 4.14Q15.36 3.98 15.52 3.79Q15.68 3.60 16.01 3.46Q16.34 3.32 16.68 3.18Q17.02 3.04 17.58 2.55Q18.13 2.06 18.69 1.29L18.69 1.29Q19.04 0.81 19.89 0.81L19.89 0.81Q20.19 0.81 20.19 0.99L20.19 0.99Q20.19 1.11 19.56 2.02Q18.93 2.93 18.93 3.16Q18.93 3.39 19.35 3.39L19.35 3.39Q19.52 3.40 19.99 3.40ZM17.29 13.15L17.29 13.15Q16.48 13.15 16.10 12.66Q15.72 12.18 15.72 11.47Q15.72 10.77 16.03 9.99Q16.34 9.21 16.88 8.48Q17.42 7.76 18.29 7.26Q19.17 6.76 20.17 6.76L20.17 6.76Q20.64 6.76 20.87 7.05Q21.11 7.34 21.11 7.73L21.11 7.73Q21.11 8.54 20.54 9.24Q19.96 9.94 19.26 10.30Q18.56 10.67 18.02 10.72Q17.49 10.77 17.30 10.92Q17.12 11.07 17.12 11.54Q17.12 12.00 17.33 12.24Q17.54 12.47 17.75 12.56Q17.96 12.64 17.96 12.73L17.96 12.73Q17.96 12.92 17.75 13.03Q17.54 13.15 17.29 13.15ZM19.75 8.08L19.75 8.08Q19.75 7.64 19.36 7.64L19.36 7.64Q18.80 7.64 18.12 8.43Q17.44 9.21 17.44 9.84L17.44 9.84Q17.44 10.00 17.68 10.00L17.68 10.00Q18.26 10.00 19.00 9.41Q19.75 8.82 19.75 8.08ZM24.14 12.95L24.14 12.95Q23.74 12.95 23.74 12.77L23.74 12.77L23.77 12.68Q24.61 11.42 25.21 10.26Q25.82 9.09 25.82 8.74L25.82 8.74Q25.82 8.62 25.76 8.56Q25.70 8.50 25.59 8.48L25.59 8.48Q25.05 8.48 24.13 9.18Q23.21 9.88 22.52 10.63Q21.83 11.37 21.49 11.84Q21.15 12.31 20.48 12.31L20.48 12.31Q20.12 12.31 20.12 12.12L20.12 12.12Q20.12 11.76 21.49 9.55Q22.86 7.35 23.31 7.18L23.31 7.18Q23.55 7.04 23.92 7.04Q24.29 7.04 24.29 7.19Q24.29 7.34 23.95 7.83Q23.62 8.32 23.62 8.46L23.62 8.46Q23.65 8.57 23.74 8.57Q23.83 8.57 23.90 8.51L23.90 8.51Q25.97 6.90 27.20 6.90L27.20 6.90Q27.72 6.90 27.72 7.50L27.72 7.50Q27.72 7.90 27.14 9.20Q26.56 10.50 25.67 11.73Q24.78 12.95 24.14 12.95Z"></path></g><!----><!----></svg>